<svg xmlns="http://www.w3.org/2000/svg" width="165" height="34" fill="none"><path fill="#204458" d="M35.803 30.2v.8h-3.755v-6.72h3.656v.81h-2.797v2.105h2.5v.81h-2.5V30.2h2.896Zm2.513.177c.659 0 .988-.224.988-.672a.595.595 0 0 0-.178-.454c-.118-.112-.336-.208-.652-.287l-.543-.138c-.402-.1-.702-.27-.9-.514a1.393 1.393 0 0 1-.296-.89c0-.25.056-.48.168-.692.112-.217.29-.392.533-.523.244-.132.56-.198.95-.198.25 0 .503.03.76.089.264.053.53.145.8.277l-.256.682c-.481-.218-.916-.326-1.305-.326-.573 0-.86.214-.86.642a.62.62 0 0 0 .158.425c.106.119.303.214.593.287l.544.138c.435.105.754.277.959.514.204.237.306.543.306.919 0 .27-.06.517-.178.741a1.173 1.173 0 0 1-.553.514c-.25.125-.59.188-1.018.188-.284 0-.567-.03-.85-.09a4.391 4.391 0 0 1-.86-.286l.217-.672c.284.112.54.195.771.247.23.053.465.08.702.08Zm5.017.722c-.369 0-.75-.076-1.146-.227v2.233h-.81v-6.997h.77v.692c.303-.29.58-.495.83-.613.25-.119.508-.178.771-.178.52 0 .92.198 1.196.593.283.395.425.952.425 1.67v.574c0 .685-.175 1.232-.524 1.64-.342.409-.846.613-1.512.613Zm.218-4.329c-.191 0-.39.05-.593.148-.205.1-.462.3-.771.603v2.61c.19.085.375.148.553.187.178.033.353.05.524.05.448 0 .77-.136.969-.406.197-.276.296-.649.296-1.116v-.574c0-.514-.082-.892-.247-1.136-.158-.244-.402-.366-.731-.366Zm6.865 3.943a3.365 3.365 0 0 1-.89.297c-.296.06-.57.089-.82.089-.705 0-1.232-.201-1.581-.603-.343-.402-.514-.952-.514-1.65v-.593c0-.68.171-1.223.514-1.631.35-.409.84-.613 1.473-.613.336 0 .642.07.919.208.283.131.507.336.672.612.171.27.257.62.257 1.048 0 .277-.04.593-.119.949h-2.915v.02c0 .5.102.88.306 1.136.21.257.547.386 1.008.386.21 0 .441-.027.692-.08a3.46 3.46 0 0 0 .751-.247l.247.672Zm-1.818-3.992c-.383 0-.672.125-.87.375-.191.244-.297.59-.316 1.038h2.213c.02-.119.03-.23.03-.336 0-.37-.105-.64-.316-.81a1.09 1.09 0 0 0-.741-.267Zm3.823 1.541v.584c0 .5.093.88.277 1.136.185.25.478.376.88.376.395 0 .82-.102 1.275-.307l.247.682c-.54.244-1.064.366-1.572.366-.632 0-1.113-.201-1.443-.603-.329-.402-.494-.952-.494-1.65v-.584c0-.698.165-1.248.494-1.65.33-.402.81-.603 1.443-.603.238 0 .481.033.732.099.257.06.514.145.77.257l-.247.692a4.505 4.505 0 0 0-.632-.218 2.223 2.223 0 0 0-.573-.079c-.402 0-.695.129-.88.386-.184.25-.277.622-.277 1.116Zm4.727-3.35h-.91v-.91h.91v.91ZM57.098 31h-.81v-4.892h.81V31Zm5.325.05c-.303 0-.547-.07-.731-.208a1.112 1.112 0 0 1-.376-.514c-.323.283-.616.484-.88.603a2.008 2.008 0 0 1-.79.168c-.428 0-.745-.139-.949-.415-.204-.277-.306-.616-.306-1.018 0-.27.05-.51.148-.722a1.05 1.05 0 0 1 .504-.494c.237-.125.557-.188.959-.188.178 0 .372.014.583.04.21.02.425.046.642.079v-.662c0-.37-.082-.62-.247-.751-.158-.139-.392-.208-.701-.208-.422 0-.893.115-1.414.346l-.257-.672c.303-.138.593-.244.87-.316.277-.073.557-.109.84-.109.461 0 .814.076 1.058.227.243.152.411.353.504.603.092.25.138.524.138.82v2.116c0 .151.03.28.089.385.06.099.178.148.356.148h.108v.741h-.148Zm-3.232-1.394c0 .224.053.405.158.544a.537.537 0 0 0 .455.207c.171 0 .37-.05.593-.148.224-.106.5-.313.83-.623v-.622a7.529 7.529 0 0 0-1.186-.11c-.303 0-.52.063-.652.189-.132.125-.198.313-.198.563Zm4.519.158v-6.128h.81v6.088c0 .178.026.313.08.406.058.085.174.128.345.128h.158v.741h-.227c-.435 0-.738-.115-.91-.346-.17-.23-.256-.527-.256-.889Zm3.475-4.902h-.91v-.91h.91v.91ZM67.135 31h-.81v-4.892h.81V31Zm2.944-.623c.659 0 .988-.224.988-.672a.595.595 0 0 0-.178-.454c-.118-.112-.336-.208-.652-.287l-.544-.138c-.401-.1-.701-.27-.899-.514a1.393 1.393 0 0 1-.296-.89c0-.25.056-.48.168-.692.112-.217.29-.392.533-.523.244-.132.56-.198.949-.198.25 0 .504.03.761.089.264.053.53.145.8.277l-.256.682c-.481-.218-.916-.326-1.305-.326-.573 0-.86.214-.86.642a.62.62 0 0 0 .158.425c.106.119.303.214.593.287l.544.138c.435.105.754.277.959.514.204.237.306.543.306.919 0 .27-.06.517-.178.741a1.173 1.173 0 0 1-.553.514c-.25.125-.59.188-1.018.188-.284 0-.567-.03-.85-.09a4.391 4.391 0 0 1-.86-.286l.217-.672c.284.112.54.195.771.247.23.053.465.08.702.08Zm5.749.445a2.595 2.595 0 0 1-1.177.277c-.355 0-.635-.073-.84-.218a1.194 1.194 0 0 1-.425-.583 2.616 2.616 0 0 1-.118-.81V26.82h-.85v-.712h.85v-1.364h.81v1.364h1.601v.712h-1.6v2.638c0 .343.055.58.167.712.119.125.3.188.544.188.118 0 .24-.014.365-.04.132-.033.274-.086.425-.158l.248.662Zm4.643.227c-.303 0-.547-.069-.731-.207a1.112 1.112 0 0 1-.375-.514c-.323.283-.617.484-.88.603a2.008 2.008 0 0 1-.79.168c-.429 0-.745-.139-.95-.415-.204-.277-.306-.616-.306-1.018 0-.27.05-.51.148-.722a1.05 1.05 0 0 1 .504-.494c.238-.125.557-.188.959-.188.178 0 .372.014.583.04.211.02.425.046.642.079v-.662c0-.37-.082-.62-.247-.751-.158-.139-.392-.208-.701-.208-.422 0-.893.115-1.413.346l-.258-.672c.304-.138.593-.244.87-.316.277-.073.557-.109.84-.109.462 0 .814.076 1.058.227.243.152.412.353.504.603.092.25.138.524.138.82v2.116c0 .151.03.28.09.385.058.099.177.148.355.148h.109v.741h-.149Zm-3.231-1.393c0 .224.052.405.158.544a.537.537 0 0 0 .454.207c.172 0 .37-.05.593-.148.224-.106.501-.313.83-.623v-.622a7.529 7.529 0 0 0-1.186-.11c-.302 0-.52.063-.652.189-.132.125-.197.313-.197.563Zm5.724.721c.658 0 .988-.224.988-.672a.595.595 0 0 0-.178-.454c-.119-.112-.336-.208-.652-.287l-.544-.138c-.402-.1-.702-.27-.9-.514a1.393 1.393 0 0 1-.296-.89c0-.25.056-.48.168-.692.112-.217.29-.392.534-.523.244-.132.56-.198.949-.198.25 0 .504.03.76.089.264.053.531.145.801.277l-.257.682c-.48-.218-.916-.326-1.304-.326-.573 0-.86.214-.86.642a.62.62 0 0 0 .158.425c.105.119.303.214.593.287l.544.138c.434.105.754.277.958.514.204.237.307.543.307.919 0 .27-.06.517-.178.741a1.173 1.173 0 0 1-.554.514c-.25.125-.59.188-1.018.188a4.14 4.14 0 0 1-.85-.09 4.393 4.393 0 0 1-.86-.286l.218-.672a5.4 5.4 0 0 0 .77.247c.231.053.465.08.703.08Zm8.76.336a3.365 3.365 0 0 1-.89.297c-.296.06-.57.089-.82.089-.704 0-1.232-.201-1.58-.603-.343-.402-.515-.952-.515-1.65v-.593c0-.68.172-1.223.514-1.631.35-.409.84-.613 1.473-.613.336 0 .642.07.919.208.283.131.507.336.672.612.171.27.257.62.257 1.048 0 .277-.04.593-.119.949H88.72v.02c0 .5.102.88.306 1.136.211.257.547.386 1.008.386.211 0 .442-.027.692-.08a3.46 3.46 0 0 0 .751-.247l.247.672Zm-1.818-3.992c-.382 0-.672.125-.87.375-.191.244-.296.59-.316 1.038h2.214c.02-.119.03-.23.03-.336 0-.37-.106-.64-.317-.81a1.09 1.09 0 0 0-.741-.267Zm5.602.049c-.184 0-.401.046-.652.138-.243.093-.54.28-.89.564V31h-.81v-4.892h.771v.682c.35-.297.666-.5.949-.613.29-.112.567-.168.83-.168.455 0 .8.145 1.038.435.244.283.366.688.366 1.216V31h-.81v-3.222c0-.672-.264-1.008-.791-1.008Zm6.415.356.475 2.718 1.551-5.565h.801l1.551 5.535.495-2.688.583-2.847h.85L106.746 31h-.869l-1.542-5.495L102.793 31h-.88l-1.472-6.72h.899l.583 2.846Zm10.986 3.587a3.362 3.362 0 0 1-.889.297 4.21 4.21 0 0 1-.821.089c-.705 0-1.232-.201-1.581-.603-.343-.402-.514-.952-.514-1.65v-.593c0-.68.171-1.223.514-1.631.349-.409.84-.613 1.473-.613.336 0 .642.07.919.208.283.131.507.336.672.612.171.27.257.62.257 1.048 0 .277-.04.593-.119.949h-2.915v.02c0 .5.102.88.306 1.136.211.257.547.386 1.008.386.211 0 .442-.027.692-.08.257-.052.507-.135.751-.247l.247.672Zm-1.818-3.992c-.382 0-.672.125-.87.375-.191.244-.297.59-.316 1.038h2.214a2.13 2.13 0 0 0 .029-.336c0-.37-.105-.64-.316-.81a1.089 1.089 0 0 0-.741-.267Zm7.204 2.125c0 .685-.172 1.232-.514 1.64-.343.409-.847.613-1.513.613-.658 0-1.311-.175-1.956-.524v-6.889h.81v3.084c.297-.277.567-.471.81-.583.251-.119.504-.178.761-.178.514 0 .91.198 1.186.593.277.395.416.952.416 1.67v.574Zm-1.799-2.076c-.185 0-.382.05-.593.148-.204.1-.465.303-.781.613v2.59a2.82 2.82 0 0 0 1.097.247c.442 0 .758-.136.949-.406.191-.276.286-.649.286-1.116v-.574c0-.514-.079-.892-.237-1.136-.158-.244-.398-.366-.721-.366Zm4.494 3.607c.659 0 .989-.224.989-.672a.598.598 0 0 0-.178-.454c-.119-.112-.336-.208-.653-.287l-.543-.138c-.402-.1-.702-.27-.9-.514a1.396 1.396 0 0 1-.296-.89c0-.25.056-.48.168-.692.112-.217.29-.392.534-.523.243-.132.56-.198.948-.198.251 0 .504.03.761.089a3.3 3.3 0 0 1 .801.277l-.257.682c-.481-.218-.916-.326-1.305-.326-.573 0-.859.214-.859.642 0 .165.052.306.158.425.105.119.303.214.593.287l.543.138c.435.105.755.277.959.514.204.237.306.543.306.919 0 .27-.059.517-.178.741a1.172 1.172 0 0 1-.553.514c-.25.125-.59.188-1.018.188-.283 0-.567-.03-.85-.09a4.399 4.399 0 0 1-.86-.286l.218-.672c.283.112.54.195.771.247.23.053.464.08.701.08Z"/><path fill="#0080C4" d="M4.548 14.168c-.832 0-1.556-.168-2.172-.504A3.475 3.475 0 0 1 .96 12.2c-.336-.648-.504-1.432-.504-2.352 0-.672.096-1.276.288-1.812a3.818 3.818 0 0 1 .84-1.392 3.693 3.693 0 0 1 1.32-.9c.52-.208 1.104-.312 1.752-.312.4 0 .748.052 1.044.156.296.104.572.252.828.444l.144-.6h.924l.456 3.012-1.2.228c-.152-.456-.328-.812-.528-1.068a1.765 1.765 0 0 0-.672-.564c-.24-.12-.5-.18-.78-.18-.416 0-.76.108-1.032.324-.272.208-.476.512-.612.912-.128.392-.192.864-.192 1.416 0 .584.06 1.068.18 1.452.128.376.296.676.504.9.208.216.44.368.696.456.264.088.532.132.804.132.336 0 .644-.044.924-.132.288-.096.536-.216.744-.36.216-.144.384-.284.504-.42l.768 1.032c-.136.16-.312.336-.528.528-.208.184-.46.356-.756.516-.296.16-.64.292-1.032.396a4.961 4.961 0 0 1-1.296.156Zm7.646 0c-.728 0-1.348-.116-1.86-.348a2.548 2.548 0 0 1-1.152-1.056c-.264-.472-.396-1.056-.396-1.752 0-.784.152-1.424.456-1.92.312-.496.744-.86 1.296-1.092.552-.232 1.192-.348 1.92-.348.656 0 1.232.108 1.728.324.504.208.9.544 1.188 1.008.288.456.432 1.056.432 1.8 0 .736-.14 1.356-.42 1.86-.28.504-.688.884-1.224 1.14-.536.256-1.192.384-1.968.384Zm.168-1.26c.248 0 .436-.068.564-.204.136-.136.232-.344.288-.624.064-.28.096-.636.096-1.068 0-.416-.024-.76-.072-1.032-.048-.272-.12-.484-.216-.636a.776.776 0 0 0-.324-.336.907.907 0 0 0-.432-.096c-.2 0-.376.048-.528.144-.144.096-.256.268-.336.516-.08.248-.12.596-.12 1.044 0 .528.032.96.096 1.296.072.336.188.588.348.756.16.16.372.24.636.24ZM16.51 14v-1.02l.42-.084c.128-.024.212-.072.252-.144.04-.072.06-.216.06-.432V9.752c0-.24-.024-.404-.072-.492-.048-.096-.164-.16-.348-.192l-.408-.072.108-1.104 2.592-.168.204.12.096 1.104h.048c.192-.4.464-.716.816-.948.352-.232.8-.348 1.344-.348.488 0 .88.092 1.176.276.296.176.512.42.648.732s.204.66.204 1.044v2.724c0 .16.02.276.06.348.048.072.148.12.3.144l.372.06V14h-3.684v-1.008l.264-.048c.128-.032.212-.08.252-.144.04-.072.06-.192.06-.36v-2.136a2.15 2.15 0 0 0-.072-.624.617.617 0 0 0-.228-.336.703.703 0 0 0-.408-.108.972.972 0 0 0-.48.12c-.136.072-.248.2-.336.384-.088.184-.132.44-.132.768v1.896c0 .168.016.292.048.372.04.08.124.132.252.156l.288.06V14H16.51Zm8.711.168-.168-2.172 1.176-.06c.12.248.264.456.432.624.168.168.352.292.552.372.208.08.424.12.648.12.296 0 .508-.052.636-.156a.513.513 0 0 0 .204-.432.353.353 0 0 0-.132-.288c-.088-.08-.228-.148-.42-.204a6.642 6.642 0 0 0-.768-.192c-.24-.056-.496-.124-.768-.204a3.51 3.51 0 0 1-.744-.348 1.69 1.69 0 0 1-.564-.576c-.144-.248-.216-.56-.216-.936 0-.448.104-.824.312-1.128a1.93 1.93 0 0 1 .888-.696c.376-.16.808-.24 1.296-.24.352 0 .66.04.924.12.272.08.496.168.672.264l.096-.384h.972l.12 2.076-1.14-.06c-.152-.36-.364-.62-.636-.78a1.558 1.558 0 0 0-.852-.252c-.248 0-.44.044-.576.132-.128.08-.192.208-.192.384 0 .128.04.232.12.312.088.072.224.14.408.204.192.064.436.132.732.204.328.072.632.156.912.252.288.088.54.208.756.36.224.144.396.332.516.564.128.224.192.512.192.864 0 .472-.108.88-.324 1.224a1.99 1.99 0 0 1-.888.768c-.384.176-.836.264-1.356.264a3.46 3.46 0 0 1-1.008-.132c-.28-.08-.524-.18-.732-.3l-.132.432h-.948Zm8.552 0c-.656 0-1.152-.18-1.488-.54-.336-.36-.504-.86-.504-1.5V9.812c0-.232-.02-.404-.06-.516-.032-.12-.144-.196-.336-.228l-.408-.072.096-1.104 2.88-.168.216.12v3.708c0 .256.02.46.06.612.048.152.124.26.228.324a.72.72 0 0 0 .384.096c.2 0 .368-.048.504-.144a.828.828 0 0 0 .3-.42c.072-.192.108-.432.108-.72V9.8c0-.296-.028-.484-.084-.564-.048-.08-.156-.136-.324-.168l-.336-.06.168-1.116 2.748-.168.204.12v4.296c0 .256.028.436.084.54.056.096.152.16.288.192l.408.072V14l-2.82.096-.156-1.068h-.048a3.72 3.72 0 0 1-.444.564c-.16.168-.372.304-.636.408-.256.112-.6.168-1.032.168ZM39.487 14v-1.032l.456-.072c.144-.024.236-.072.276-.144.04-.072.06-.22.06-.444V6.836c0-.264-.028-.44-.084-.528-.048-.096-.168-.16-.36-.192l-.372-.06.084-1.116 2.892-.156.228.156v7.392c0 .208.02.348.06.42.04.064.136.112.288.144l.432.084V14h-3.96Zm7.169.168c-.448 0-.828-.072-1.14-.216a1.51 1.51 0 0 1-.708-.648c-.16-.288-.24-.636-.24-1.044V9.08h-.828V8c.408-.072.72-.188.936-.348.216-.168.376-.4.48-.696.104-.296.18-.664.228-1.104l1.32-.18.252.12V7.82h1.596v1.26h-1.596v2.712c0 .256.036.46.108.612.08.152.248.228.504.228.152 0 .304-.024.456-.072a2.93 2.93 0 0 0 .456-.204l.48.924c-.248.248-.56.46-.936.636-.376.168-.832.252-1.368.252Zm5.991 0c-.728 0-1.348-.116-1.86-.348a2.548 2.548 0 0 1-1.152-1.056c-.264-.472-.396-1.056-.396-1.752 0-.784.152-1.424.456-1.92.312-.496.744-.86 1.296-1.092.552-.232 1.192-.348 1.92-.348.656 0 1.232.108 1.728.324.504.208.9.544 1.188 1.008.288.456.432 1.056.432 1.8 0 .736-.14 1.356-.42 1.86-.28.504-.688.884-1.224 1.14-.536.256-1.192.384-1.968.384Zm.168-1.26c.248 0 .436-.068.564-.204.136-.136.232-.344.288-.624.064-.28.096-.636.096-1.068 0-.416-.024-.76-.072-1.032-.048-.272-.12-.484-.216-.636a.776.776 0 0 0-.324-.336.907.907 0 0 0-.432-.096c-.2 0-.376.048-.528.144-.144.096-.256.268-.336.516-.08.248-.12.596-.12 1.044 0 .528.032.96.096 1.296.072.336.188.588.348.756.16.16.372.24.636.24ZM56.964 14v-1.032l.431-.072c.128-.024.208-.076.24-.156.04-.088.06-.236.06-.444V9.812c0-.264-.02-.444-.06-.54-.032-.104-.143-.172-.335-.204l-.432-.06.107-1.116 2.569-.168.216.12.108 1.104h.047c.177-.384.437-.696.78-.936.344-.24.736-.36 1.176-.36.472 0 .844.128 1.116.384.273.256.408.596.408 1.02 0 .296-.048.548-.144.756a.964.964 0 0 1-.395.456 1.254 1.254 0 0 1-.648.156c-.337 0-.584-.068-.744-.204a.625.625 0 0 1-.228-.48 1.274 1.274 0 0 1 .06-.384c.032-.08.072-.184.12-.312a.858.858 0 0 0-.492 0 .922.922 0 0 0-.432.252 1.442 1.442 0 0 0-.313.492 1.91 1.91 0 0 0-.108.672v1.86c0 .2.025.34.073.42.047.08.144.128.288.144l.791.096V14h-4.26Zm8.738.168c-.624 0-1.104-.148-1.44-.444-.336-.304-.504-.704-.504-1.2 0-.504.128-.892.384-1.164.264-.272.652-.464 1.164-.576.52-.12 1.172-.192 1.956-.216V9.8c0-.28-.024-.508-.072-.684a.654.654 0 0 0-.24-.408c-.12-.088-.3-.132-.54-.132-.152 0-.308.02-.468.06a1.36 1.36 0 0 0-.408.168c.072.112.128.216.168.312.048.096.08.18.096.252a.544.544 0 0 1 .036.192c0 .184-.088.34-.264.468-.168.128-.428.192-.78.192-.304 0-.532-.072-.684-.216a.763.763 0 0 1-.216-.564c0-.344.12-.648.36-.912.24-.272.58-.484 1.02-.636.44-.152.96-.228 1.56-.228.656 0 1.188.084 1.596.252.416.168.72.428.912.78.2.344.3.784.3 1.32v2.28c0 .184.028.32.084.408.064.088.172.132.324.132.08 0 .156-.008.228-.024l.204-.048.18.84c-.168.136-.4.264-.696.384a2.53 2.53 0 0 1-.96.18c-.416 0-.748-.092-.996-.276a1.233 1.233 0 0 1-.48-.672c-.08.144-.2.292-.36.444-.16.144-.36.264-.6.36-.24.096-.528.144-.864.144Zm.9-1.188a.705.705 0 0 0 .36-.084.525.525 0 0 0 .216-.24.876.876 0 0 0 .084-.396v-.78c-.272 0-.496.028-.672.084a.756.756 0 0 0-.396.264c-.08.112-.12.268-.12.468 0 .192.04.356.12.492.08.128.216.192.408.192ZM73.367 14v-1.044l.396-.084c.152-.032.252-.08.3-.144.048-.064.076-.176.084-.336l.324-5.196c.008-.168-.012-.284-.06-.348s-.156-.108-.324-.132l-.408-.06V5.6h3.504L78.9 9.716l.048-.024L80.843 5.6h3.204v1.056l-.456.06a.57.57 0 0 0-.264.096c-.056.04-.076.168-.06.384l.384 5.1c.016.176.04.304.072.384.032.08.14.14.324.18l.384.084V14h-4.056v-1.056l.6-.084a.413.413 0 0 0 .228-.12c.048-.064.064-.172.048-.324l-.312-3.948-.036-.024-1.86 4.2h-1.236l-1.896-4.2-.036.024-.216 3.828c-.008.168-.004.296.012.384.024.088.132.148.324.18l.54.084V14h-3.168Zm15.02.168c-.736 0-1.352-.128-1.848-.384a2.663 2.663 0 0 1-1.104-1.08c-.24-.464-.36-1-.36-1.608 0-.752.148-1.38.444-1.884.304-.512.72-.9 1.248-1.164.536-.264 1.144-.396 1.824-.396.576 0 1.076.092 1.5.276.424.184.752.456.984.816.232.36.348.804.348 1.332 0 .208-.012.416-.036.624-.016.208-.044.4-.084.576h-3.768c.024.264.096.488.216.672.12.184.28.32.48.408.208.088.448.132.72.132.4 0 .744-.052 1.032-.156.288-.112.572-.26.852-.444l.684.828a4.118 4.118 0 0 1-1.296 1.044c-.52.272-1.132.408-1.836.408Zm-.876-4.008h1.62a3.467 3.467 0 0 0 .048-.588c0-.248-.06-.44-.18-.576-.112-.144-.28-.216-.504-.216a.8.8 0 0 0-.552.192c-.136.12-.24.284-.312.492a2.86 2.86 0 0 0-.12.696Zm.432-3.024-.516-.516 1.356-2.04c.112-.168.22-.276.324-.324a.82.82 0 0 1 .348-.072c.208 0 .372.056.492.168a.8.8 0 0 1 .264.372c.056.144.084.272.084.384 0 .128-.036.26-.108.396a1.098 1.098 0 0 1-.36.36l-1.884 1.272Zm6.873 7.032c-.584 0-1.072-.124-1.464-.372a2.337 2.337 0 0 1-.876-1.056c-.192-.456-.288-1.004-.288-1.644 0-.704.12-1.312.36-1.824s.588-.908 1.044-1.188c.456-.288 1.008-.432 1.656-.432.296 0 .552.032.768.096.216.056.412.132.588.228V6.68c0-.224-.028-.38-.084-.468-.056-.088-.188-.148-.396-.18l-.444-.072.096-1.08 3.012-.084.192.216v7.356c0 .176.02.296.06.36.048.056.156.104.324.144l.396.084v1.056l-2.82.072-.132-.948h-.06a2.069 2.069 0 0 1-.396.504c-.16.152-.368.276-.624.372-.248.104-.552.156-.912.156Zm.828-1.368a.895.895 0 0 0 .528-.144.935.935 0 0 0 .324-.444c.072-.192.108-.424.108-.696V9.308a2.109 2.109 0 0 0-.432-.204 1.512 1.512 0 0 0-.48-.072.832.832 0 0 0-.576.204c-.152.136-.264.348-.336.636-.064.28-.096.64-.096 1.08 0 .424.036.772.108 1.044.072.272.18.476.324.612.144.128.32.192.528.192Zm4.759 1.2v-1.032l.468-.072c.136-.024.224-.076.264-.156.04-.08.06-.224.06-.432V9.824c0-.272-.024-.456-.072-.552-.048-.104-.164-.172-.348-.204l-.408-.06.084-1.116 2.928-.156.192.12v4.464c0 .176.016.308.048.396.032.088.124.148.276.18l.456.084V14h-3.948Zm1.812-7.116c-.44 0-.784-.1-1.032-.3-.24-.2-.36-.48-.36-.84s.116-.64.348-.84c.24-.2.588-.3 1.044-.3.464 0 .808.1 1.032.3.232.192.348.472.348.84 0 .36-.124.64-.372.84-.248.2-.584.3-1.008.3Zm5.88 7.284c-.68 0-1.26-.128-1.74-.384a2.678 2.678 0 0 1-1.08-1.092c-.248-.472-.372-1.016-.372-1.632 0-.68.136-1.272.408-1.776a2.91 2.91 0 0 1 1.188-1.2c.52-.288 1.156-.432 1.908-.432.568 0 1.048.084 1.44.252.392.16.688.372.888.636.2.256.3.528.3.816 0 .192-.04.372-.12.54a.904.904 0 0 1-.348.408c-.16.104-.376.156-.648.156-.304 0-.548-.06-.732-.18a.629.629 0 0 1-.264-.54c0-.088.02-.184.06-.288.04-.112.112-.268.216-.468a1.362 1.362 0 0 0-.36-.12 1.64 1.64 0 0 0-.42-.048.943.943 0 0 0-.588.192c-.168.128-.3.328-.396.6-.088.264-.132.596-.132.996 0 .632.12 1.108.36 1.428.248.312.628.468 1.14.468.28 0 .552-.04.816-.12.272-.08.568-.22.888-.42l.648.912c-.32.36-.724.668-1.212.924-.488.248-1.104.372-1.848.372Zm5.56 0c-.624 0-1.104-.148-1.44-.444-.336-.304-.504-.704-.504-1.2 0-.504.128-.892.384-1.164.264-.272.652-.464 1.164-.576.52-.12 1.172-.192 1.956-.216V9.8c0-.28-.024-.508-.072-.684a.654.654 0 0 0-.24-.408c-.12-.088-.3-.132-.54-.132-.152 0-.308.02-.468.06a1.36 1.36 0 0 0-.408.168c.072.112.128.216.168.312.048.096.08.18.096.252a.544.544 0 0 1 .036.192c0 .184-.088.34-.264.468-.168.128-.428.192-.78.192-.304 0-.532-.072-.684-.216a.763.763 0 0 1-.216-.564c0-.344.12-.648.36-.912.24-.272.58-.484 1.02-.636.44-.152.96-.228 1.56-.228.656 0 1.188.084 1.596.252.416.168.72.428.912.78.2.344.3.784.3 1.32v2.28c0 .184.028.32.084.408.064.088.172.132.324.132.08 0 .156-.008.228-.024l.204-.048.18.84c-.168.136-.4.264-.696.384a2.53 2.53 0 0 1-.96.18c-.416 0-.748-.092-.996-.276a1.233 1.233 0 0 1-.48-.672c-.08.144-.2.292-.36.444-.16.144-.36.264-.6.36-.24.096-.528.144-.864.144Zm.9-1.188a.705.705 0 0 0 .36-.084.525.525 0 0 0 .216-.24.876.876 0 0 0 .084-.396v-.78c-.272 0-.496.028-.672.084a.756.756 0 0 0-.396.264c-.08.112-.12.268-.12.468 0 .192.04.356.12.492.08.128.216.192.408.192Zm6.921 1.02v-1.056l.408-.084c.152-.024.252-.072.3-.144.048-.08.072-.236.072-.468V7.292c0-.208-.028-.348-.084-.42-.056-.08-.16-.132-.312-.156l-.384-.06V5.6h4.104c.424 0 .844.036 1.26.108.424.072.82.196 1.188.372.376.176.708.416.996.72.288.304.516.68.684 1.128.168.448.252.992.252 1.632 0 .728-.108 1.368-.324 1.92a3.405 3.405 0 0 1-.96 1.392c-.424.376-.96.66-1.608.852-.648.184-1.408.276-2.28.276h-3.312Zm3.876-1.392c.376 0 .692-.06.948-.18s.46-.3.612-.54c.152-.248.26-.556.324-.924.072-.376.108-.82.108-1.332 0-.616-.076-1.116-.228-1.5-.152-.392-.376-.68-.672-.864-.288-.184-.64-.276-1.056-.276h-.636v5.568a3.615 3.615 0 0 0 .6.048ZM130.79 14v-1.032l.468-.072c.136-.024.224-.076.264-.156.04-.08.06-.224.06-.432V9.824c0-.272-.024-.456-.072-.552-.048-.104-.164-.172-.348-.204l-.408-.06.084-1.116 2.928-.156.192.12v4.464c0 .176.016.308.048.396.032.088.124.148.276.18l.456.084V14h-3.948Zm1.812-7.116c-.44 0-.784-.1-1.032-.3-.24-.2-.36-.48-.36-.84s.116-.64.348-.84c.24-.2.588-.3 1.044-.3.464 0 .808.1 1.032.3.232.192.348.472.348.84 0 .36-.124.64-.372.84-.248.2-.584.3-1.008.3Zm5.591 9.876a8.016 8.016 0 0 1-1.404-.108c-.392-.064-.716-.164-.972-.3a1.425 1.425 0 0 1-.564-.492c-.12-.192-.18-.42-.18-.684 0-.288.068-.52.204-.696.136-.176.316-.316.54-.42a5.48 5.48 0 0 1 .684-.264v-.036c-.344-.104-.584-.252-.72-.444a1.008 1.008 0 0 1-.204-.588c0-.2.056-.384.168-.552.112-.168.28-.328.504-.48v-.036a2.037 2.037 0 0 1-.684-.672c-.168-.28-.252-.612-.252-.996 0-.552.144-1 .432-1.344.296-.344.68-.596 1.152-.756a4.729 4.729 0 0 1 1.572-.252c.12 0 .272.008.456.024.192.016.392.044.6.084.216.04.416.104.6.192.256-.472.508-.848.756-1.128.248-.288.548-.432.9-.432.144 0 .288.032.432.096.144.056.26.152.348.288.096.128.144.296.144.504 0 .24-.072.456-.216.648a.694.694 0 0 1-.576.276.579.579 0 0 1-.336-.108 1.375 1.375 0 0 1-.264-.264l-.144-.192c-.08.08-.156.18-.228.3-.064.112-.128.228-.192.348.216.208.408.436.576.684.168.248.252.576.252.984 0 .408-.124.784-.372 1.128-.24.336-.592.608-1.056.816-.464.2-1.024.3-1.68.3-.224 0-.424-.012-.6-.036a9.784 9.784 0 0 1-.516-.108.524.524 0 0 0-.12.144.4.4 0 0 0-.036.18c0 .12.036.212.108.276a.588.588 0 0 0 .288.108c.12.016.252.024.396.024h2.22c.72 0 1.26.14 1.62.42.36.272.54.652.54 1.14 0 .184-.028.38-.084.588a1.894 1.894 0 0 1-.324.648c-.16.216-.396.412-.708.588-.304.184-.704.328-1.2.432-.496.112-1.116.168-1.86.168Zm.264-1.14c.288 0 .532-.036.732-.108.2-.072.352-.172.456-.3a.596.596 0 0 0 .168-.42c0-.16-.052-.28-.156-.36-.104-.072-.26-.108-.468-.108h-1.572c-.088.08-.16.172-.216.276a.82.82 0 0 0-.084.372c0 .224.1.388.3.492.2.104.48.156.84.156Zm0-4.692c.232 0 .408-.084.528-.252.12-.176.18-.428.18-.756 0-.392-.064-.672-.192-.84-.12-.168-.296-.252-.528-.252-.272 0-.46.108-.564.324a1.647 1.647 0 0 0-.156.744c0 .312.06.564.18.756a.631.631 0 0 0 .552.276ZM142.931 14v-1.032l.468-.072c.136-.024.224-.076.264-.156.04-.08.06-.224.06-.432V9.824c0-.272-.024-.456-.072-.552-.048-.104-.164-.172-.348-.204l-.408-.06.084-1.116 2.928-.156.192.12v4.464c0 .176.016.308.048.396.032.088.124.148.276.18l.456.084V14h-3.948Zm1.812-7.116c-.44 0-.784-.1-1.032-.3-.24-.2-.36-.48-.36-.84s.116-.64.348-.84c.24-.2.588-.3 1.044-.3.464 0 .808.1 1.032.3.232.192.348.472.348.84 0 .36-.124.64-.372.84-.248.2-.584.3-1.008.3Zm5.284 7.284c-.448 0-.828-.072-1.14-.216a1.51 1.51 0 0 1-.708-.648c-.16-.288-.24-.636-.24-1.044V9.08h-.828V8c.408-.072.72-.188.936-.348.216-.168.376-.4.48-.696.104-.296.18-.664.228-1.104l1.32-.18.252.12V7.82h1.596v1.26h-1.596v2.712c0 .256.036.46.108.612.08.152.248.228.504.228.152 0 .304-.024.456-.072a2.93 2.93 0 0 0 .456-.204l.48.924c-.248.248-.56.46-.936.636-.376.168-.832.252-1.368.252Zm4.573 0c-.624 0-1.104-.148-1.44-.444-.336-.304-.504-.704-.504-1.2 0-.504.128-.892.384-1.164.264-.272.652-.464 1.164-.576.52-.12 1.172-.192 1.956-.216V9.8c0-.28-.024-.508-.072-.684a.654.654 0 0 0-.24-.408c-.12-.088-.3-.132-.54-.132-.152 0-.308.02-.468.06a1.36 1.36 0 0 0-.408.168c.072.112.128.216.168.312.048.096.08.18.096.252a.544.544 0 0 1 .036.192c0 .184-.088.34-.264.468-.168.128-.428.192-.78.192-.304 0-.532-.072-.684-.216a.763.763 0 0 1-.216-.564c0-.344.12-.648.36-.912.24-.272.58-.484 1.02-.636.44-.152.96-.228 1.56-.228.656 0 1.188.084 1.596.252.416.168.72.428.912.78.2.344.3.784.3 1.32v2.28c0 .184.028.32.084.408.064.088.172.132.324.132.08 0 .156-.008.228-.024l.204-.048.18.84c-.168.136-.4.264-.696.384a2.53 2.53 0 0 1-.96.18c-.416 0-.748-.092-.996-.276a1.233 1.233 0 0 1-.48-.672c-.08.144-.2.292-.36.444-.16.144-.36.264-.6.36-.24.096-.528.144-.864.144Zm.9-1.188a.705.705 0 0 0 .36-.084.525.525 0 0 0 .216-.24.876.876 0 0 0 .084-.396v-.78c-.272 0-.496.028-.672.084a.756.756 0 0 0-.396.264c-.08.112-.12.268-.12.468 0 .192.04.356.12.492.08.128.216.192.408.192Zm4.315 1.02v-1.032l.456-.072c.144-.024.236-.072.276-.144.04-.072.06-.22.06-.444V6.836c0-.264-.028-.44-.084-.528-.048-.096-.168-.16-.36-.192l-.372-.06.084-1.116 2.892-.156.228.156v7.392c0 .208.02.348.06.42.04.064.136.112.288.144l.432.084V14h-3.96Z"/></svg>